# xmcd
#
# Track frame offsets: 
#        150
#        25568
#        46734
#        70828
#        92527
#        114439
#        131579
#        150106
#        172141
#        194678
#
# Disc length: 3007 seconds
#
# Revision: 0
# Processed by: cddbd v1.5.2PL0 Copyright (c) Steve Scherf et al.
# Submitted via: ExactAudioCopy v0.99pb5
#
DISCID=760bbd0a
DTITLE=¸ÑÞ± - ±¡Äuªì¶}
DYEAR=1900
DGENRE=
TTITLE0=Tip the wind
TTITLE1=Feel the wind
TTITLE2=The theme from forrest gump
TTITLE3=Romantic journey
TTITLE4=A splendid encounter
TTITLE5=The route in the forest
TTITLE6=Five minutes to midnight
TTITLE7=Deeply in love
TTITLE8=The colorful strings
TTITLE9=The seed of love
EXTD=
EXTT0=
EXTT1=
EXTT2=
EXTT3=
EXTT4=
EXTT5=
EXTT6=
EXTT7=
EXTT8=
EXTT9=
PLAYORDER=
